<?xml version="1.0" standalone="no"?>
<!DOCTYPE svg PUBLIC "-//W3C//DTD SVG 20010904//EN"
 "http://www.w3.org/TR/2001/REC-SVG-20010904/DTD/svg10.dtd">
<svg version="1.0" xmlns="http://www.w3.org/2000/svg"
 width="360.000000pt" height="360.000000pt" viewBox="0 0 360.000000 360.000000"
 preserveAspectRatio="xMidYMid meet">

<g transform="translate(0.000000,360.000000) scale(0.100000,-0.100000)"
fill="#000000" stroke="none">
<path d="M1550 3546 c-300 -66 -517 -170 -773 -369 -242 -189 -458 -501 -561
-810 -74 -221 -81 -272 -81 -577 0 -254 2 -281 23 -360 58 -216 103 -332 188
-486 219 -393 561 -676 990 -819 89 -30 198 -59 241 -65 43 -6 96 -15 118 -20
22 -5 114 -10 205 -10 166 0 304 19 469 64 91 25 336 120 361 140 8 7 47 31
86 53 61 37 143 95 240 174 91 74 266 276 333 385 51 84 35 73 -25 -17 -31
-46 -71 -102 -89 -124 -49 -60 -215 -227 -259 -260 -21 -17 -44 -34 -50 -40
-27 -25 -94 -72 -135 -97 l-45 -27 -53 87 c-29 48 -59 101 -68 117 -9 17 -21
39 -28 50 -7 11 -31 52 -53 90 -23 39 -54 90 -68 115 -15 25 -29 53 -33 63 -3
9 -9 17 -14 17 -5 0 -9 5 -9 10 0 6 -11 27 -24 48 -21 33 -116 193 -156 263
-139 242 -284 488 -287 485 -2 -1 63 -117 143 -257 181 -314 184 -320 184
-340 0 -18 -31 -31 -174 -75 -69 -21 -100 -24 -226 -24 -168 0 -281 23 -410
82 -308 142 -507 475 -486 813 11 170 50 298 135 443 71 122 230 267 356 326
232 107 494 111 737 10 56 -24 108 -31 108 -16 0 7 211 381 310 547 97 165
106 183 95 201 -26 42 -249 136 -450 191 l-130 36 -265 3 c-247 3 -272 1 -370
-20z"/>
<path d="M1917 1812 c-9 -2 -17 -11 -17 -20 0 -18 36 -82 46 -82 3 0 -4 16
-16 35 -12 19 -19 39 -15 45 4 7 176 10 500 10 l495 0 24 -37 c35 -55 456
-793 456 -801 0 -4 8 -16 16 -27 16 -20 16 -20 10 2 -10 33 -471 835 -495 861
l-22 24 -482 -4 c-265 -1 -490 -4 -500 -6z"/>
<path d="M1970 1660 c6 -11 13 -20 16 -20 2 0 0 9 -6 20 -6 11 -13 20 -16 20
-2 0 0 -9 6 -20z"/>
</g>
</svg>
