<?xml version="1.0"?>
<svg width="909.38" height="517" xmlns="http://www.w3.org/2000/svg" xmlns:svg="http://www.w3.org/2000/svg" preserveAspectRatio="xMidYMid meet" version="1.0">

 <g class="layer">
  <title>Layer 1</title>
  <g fill="#000000" id="svg_1" transform="matrix(1, 0, 0, 1, 0, 0) matrix(0.1, 0, 0, -0.0861283, 0, 77.4179)">
   <path d="m932,453.92c-18,-9 -45,-32 -60,-51l-27,-35l-3,-2449l-2,-2448l1360,0l1360,0l0,-35l0,-35l-1752,2l-1753,3l-1,25c-1,14 3,28 10,32c6,4 -4,8 -21,8c-31,0 -33,-2 -33,-35c0,-19 1,-35 3,-35c1,0 103,-22 227,-50l225,-50l4092,0l4091,0l223,49c122,27 225,55 229,61c4,6 5,22 2,36c-3,17 -11,24 -29,24c-21,0 -22,-2 -13,-21c28,-52 137,-49 -1755,-49l-1755,0l0,35l0,35l1363,2l1362,3l3,2415c2,1690 0,2426 -8,2452c-13,44 -52,93 -91,113c-24,13 -486,15 -3621,15c-3306,0 -3596,-2 -3626,-17zm7194,-69c69,-33 64,169 64,-2414l0,-2340l-3650,0l-3650,0l1,2328c0,1776 3,2335 12,2362c7,19 27,44 46,57l34,23l3554,0c3270,0 3558,-1 3589,-16zm-2608,-4946l-3,-33l-954,0l-955,0l-3,33l-4,32l961,0l961,0l-3,-32z" fill="#000000" id="svg_2"/>
  </g>
  <line fill="none" id="svg_9" stroke="#000000" stroke-linecap="null" stroke-linejoin="null" x1="3.62" x2="905.62" y1="468" y2="468"/>
  <ellipse cx="816.63" cy="452.26" fill="#000000" id="svg_14" rx="2.51" ry="8.51" stroke="#000000" stroke-dasharray="null" stroke-linecap="null" stroke-linejoin="null" stroke-opacity="null" transform="rotate(43.2751, 816.628, 452.256)"/>
  <ellipse cx="92.62" cy="451.5" fill="#000000" fill-opacity="null" id="svg_15" rx="4.23" ry="8.55" stroke="#000000" stroke-dasharray="null" stroke-linecap="null" stroke-linejoin="null" stroke-opacity="null" transform="rotate(-33.2064, 92.6199, 451.5)"/>
 </g>
</svg>