<svg version="1.0" xmlns="http://www.w3.org/2000/svg" preserveAspectRatio="xMidYMid meet" viewBox="41 48 909.38 517">

<g transform="translate(0.000000,813.000000) scale(0.100000,-0.100000)" fill="#000000" stroke="none">
<path d="M1332 7633 c-18 -9 -45 -32 -60 -51 l-27 -35 -3 -2449 -2 -2448 1360 0 1360 0 0 -35 0 -35 -1752 2 -1753 3 -1 25 c-1 14 3 28 10 32 6 4 -4 8 -21 8 -31 0 -33 -2 -33 -35 0 -19 1 -35 3 -35 1 0 103 -22 227 -50 l225 -50 4092 0 4091 0 223 49 c122 27 225 55 229 61 4 6 5 22 2 36 -3 17 -11 24 -29 24 -21 0 -22 -2 -13 -21 28 -52 137 -49 -1755 -49 l-1755 0 0 35 0 35 1363 2 1362 3 3 2415 c2 1690 0 2426 -8 2452 -13 44 -52 93 -91 113 -24 13 -486 15 -3621 15 -3306 0 -3596 -2 -3626 -17z m7194 -69 c69 -33 64 169 64 -2414 l0 -2340 -3650 0 -3650 0 1 2328 c0 1776 3 2335 12 2362 7 19 27 44 46 57 l34 23 3554 0 c3270 0 3558 -1 3589 -16z m-2608 -4946 l-3 -33 -954 0 -955 0 -3 33 -4 32 961 0 961 0 -3 -32z"/>
</g>
</svg>